<svg width="300" height="300" viewBox="0 0 100 100" xmlns="http://www.w3.org/2000/svg"><g transform="rotate(1 50 50)"><circle cx="50" cy="46" r="42" fill="none" stroke="#1f1d1a" stroke-width="2.2"></circle><circle cx="50" cy="46" r="34" fill="none" stroke="#1f1d1a" stroke-width="0.8"></circle><path d="M18 78 H82 L74 90 H26 Z" fill="none" stroke="#1f1d1a" stroke-width="2.2"></path><path d="M18 78 l-6 8 14 0M82 78 l6 8 -14 0" fill="none" stroke="#1f1d1a" stroke-width="2.2"></path><g transform="translate(50 44) scale(0.74) translate(-50 -50)"><g fill="none" stroke="#1f1d1a" stroke-width="2.3" stroke-linecap="round" stroke-linejoin="round"><path d="M30 54h40"></path><path d="M34 54V42m12 12V42m8 12V42m12 12V42"></path><path d="M30 42h40"></path><path d="M36 54v8m28-8v8"></path></g></g></g><g transform="rotate(1 50 50)"><defs><path id="tx-bridgegods" d="M 16 50 A 34 34 0 0 1 84 50"></path></defs><text font-family="&#39;Oswald&#39;,sans-serif" font-weight="600" font-size="7.2" letter-spacing="1.98" fill="#1f1d1a"><textPath href="#tx-bridgegods" startOffset="50%" text-anchor="middle">BRIDGE OF GODS</textPath></text><text x="50" y="86" text-anchor="middle" font-family="&#39;Oswald&#39;,sans-serif" font-weight="600" font-size="6" letter-spacing="1.6" fill="#1f1d1a">CASCADE LOCKS</text></g></svg>