<svg width="300" height="300" viewBox="0 0 100 100" xmlns="http://www.w3.org/2000/svg"><g transform="rotate(0 50 50)"><circle cx="50" cy="50" r="46" fill="none" stroke="#1f1d1a" stroke-width="3.3"></circle><circle cx="50" cy="50" r="43" fill="none" stroke="#1f1d1a" stroke-width="2.5"></circle><circle cx="50" cy="50" r="28" fill="none" stroke="#1f1d1a" stroke-width="0.7"></circle><g transform="translate(50 50) scale(0.82) translate(-50 -50)"><g fill="none" stroke="#1f1d1a" stroke-width="2.3" stroke-linecap="round" stroke-linejoin="round"><circle cx="50" cy="48" r="2.6"></circle><ellipse cx="50" cy="48" rx="16" ry="6"></ellipse><ellipse cx="50" cy="48" rx="16" ry="6" transform="rotate(60 50 48)"></ellipse><ellipse cx="50" cy="48" rx="16" ry="6" transform="rotate(120 50 48)"></ellipse></g></g></g><g transform="rotate(0 50 50)"><defs><path id="tx-omsi" d="M 15 50 A 35 35 0 0 1 85 50"></path></defs><text font-family="&#39;Orbitron&#39;,sans-serif" font-weight="600" font-size="7.2" letter-spacing="2.2" fill="#1f1d1a"><textPath href="#tx-omsi" startOffset="50%" text-anchor="middle">OMSI</textPath></text><defs><path id="bx-omsi" d="M 15 50 A 35 35 0 0 0 85 50"></path></defs><text font-family="&#39;Orbitron&#39;,sans-serif" font-weight="600" font-size="6.2" letter-spacing="2" fill="#1f1d1a"><textPath href="#bx-omsi" startOffset="50%" text-anchor="middle">SCIENCE · 1944</textPath></text></g></svg>