<svg width="300" height="300" viewBox="0 0 100 100" xmlns="http://www.w3.org/2000/svg"><g transform="rotate(-2 50 50)"><ellipse cx="50" cy="50" rx="46" ry="38" fill="none" stroke="#1f1d1a" stroke-width="2.5"></ellipse><ellipse cx="50" cy="50" rx="34" ry="28" fill="none" stroke="#1f1d1a" stroke-width="0.8"></ellipse><g transform="translate(50 50) scale(0.84) translate(-50 -50)"><g fill="none" stroke="#1f1d1a" stroke-width="2.3" stroke-linecap="round" stroke-linejoin="round"><path d="M32 50c6-8 13-12 18-12s12 4 18 12c-6 8-13 12-18 12s-12-4-18-12z"></path><circle cx="50" cy="50" r="5.5"></circle><circle cx="50" cy="50" r="1.8"></circle></g></g></g><g transform="rotate(-2 50 50)"><defs><path id="tx-peculiarium" d="M 13 50 A 37 37 0 0 1 87 50"></path></defs><text font-family="&#39;Special Elite&#39;,monospace" font-weight="600" font-size="7.2" letter-spacing="2.2" fill="#1f1d1a"><textPath href="#tx-peculiarium" startOffset="50%" text-anchor="middle">PECULIARIUM</textPath></text><defs><path id="bx-peculiarium" d="M 16 50 A 34 34 0 0 0 84 50"></path></defs><text font-family="&#39;Special Elite&#39;,monospace" font-weight="600" font-size="6.2" letter-spacing="2" fill="#1f1d1a"><textPath href="#bx-peculiarium" startOffset="50%" text-anchor="middle">ODDITIES</textPath></text></g></svg>