<svg width="300" height="300" viewBox="0 0 100 100" xmlns="http://www.w3.org/2000/svg"><g transform="rotate(4 50 50)"><ellipse cx="50" cy="50" rx="46" ry="38" fill="none" stroke="#1f1d1a" stroke-width="2.5"></ellipse><ellipse cx="50" cy="50" rx="34" ry="28" fill="none" stroke="#1f1d1a" stroke-width="0.8"></ellipse><g transform="translate(50 50) scale(0.84) translate(-50 -50)"><g fill="none" stroke="#1f1d1a" stroke-width="2.3" stroke-linecap="round" stroke-linejoin="round"><path d="M50 37c-5-4-11-4-15 0v22c4-4 10-4 15 0"></path><path d="M50 37c5-4 11-4 15 0v22c-4-4-10-4-15 0"></path><path d="M50 37v22"></path></g></g></g><g transform="rotate(4 50 50)"><defs><path id="tx-powells" d="M 13 50 A 37 37 0 0 1 87 50"></path></defs><text font-family="&#39;Playfair Display&#39;,serif" font-weight="600" font-size="7.2" letter-spacing="2.2" fill="#1f1d1a"><textPath href="#tx-powells" startOffset="50%" text-anchor="middle">POWELL&#39;S</textPath></text><defs><path id="bx-powells" d="M 16 50 A 34 34 0 0 0 84 50"></path></defs><text font-family="&#39;Playfair Display&#39;,serif" font-weight="600" font-size="6.2" letter-spacing="2" fill="#1f1d1a"><textPath href="#bx-powells" startOffset="50%" text-anchor="middle">CITY OF BOOKS</textPath></text></g></svg>